<?xml version="1.0" encoding="UTF-8"?>
<svg id="Partnerstatus_Fachpartner_Kopie" data-name="Partnerstatus Fachpartner Kopie" xmlns="http://www.w3.org/2000/svg" xmlns:xlink="http://www.w3.org/1999/xlink" viewBox="0 0 342.99213 342.99213">
  <defs>
    <style>
      .cls-1 {
        fill: url(#Unbenannter_Verlauf_46-2);
      }

      .cls-2 {
        fill: #fff;
      }

      .cls-3 {
        fill: #9dbf26;
      }

      .cls-4 {
        fill: #222;
      }

      .cls-5 {
        fill: url(#Unbenannter_Verlauf_46);
      }
    </style>
    <linearGradient id="Unbenannter_Verlauf_46" data-name="Unbenannter Verlauf 46" x1="97.19633" y1="171.41611" x2="97.19633" y2="309.89741" gradientUnits="userSpaceOnUse">
      <stop offset="0" stop-color="#ebc326"/>
      <stop offset=".34205" stop-color="#ffe7ac"/>
      <stop offset=".37168" stop-color="#fce29c"/>
      <stop offset=".47425" stop-color="#f5d569"/>
      <stop offset=".56389" stop-color="#efcb44"/>
      <stop offset=".63625" stop-color="#ecc52e"/>
      <stop offset=".68225" stop-color="#ebc326"/>
      <stop offset=".85484" stop-color="#c79818"/>
      <stop offset=".88" stop-color="#cfa11b"/>
      <stop offset=".95432" stop-color="#e3ba23"/>
      <stop offset="1" stop-color="#ebc326"/>
    </linearGradient>
    <linearGradient id="Unbenannter_Verlauf_46-2" data-name="Unbenannter Verlauf 46" x1="245.79614" x2="245.79614" xlink:href="#Unbenannter_Verlauf_46"/>
  </defs>
  <circle class="cls-4" cx="171.49606" cy="171.49606" r="171.49606"/>
  <path class="cls-2" d="m171.49604,335.01483c-90.16406,0-163.51855-73.35449-163.51855-163.51855S81.33198,7.97772,171.49604,7.97772s163.51855,73.354,163.51855,163.51855-73.35449,163.51855-163.51855,163.51855Zm0-324.03711C82.98627,10.97772,10.97749,82.98602,10.97749,171.49627s72.00879,160.51855,160.51855,160.51855,160.51855-72.00879,160.51855-160.51855S260.00581,10.97772,171.49604,10.97772Z"/>
  <g>
    <path class="cls-2" d="m91.88637,59.45432l-5.39453,4.4126,12.00098,14.66992-3.62793,2.96777-12.00098-14.66943-5.32129,4.35303-2.40332-2.93848,14.34277-11.73389,2.4043,2.93848Z"/>
    <path class="cls-2" d="m121.31997,53.48264l-8.08398,3.95605,2.67871,5.47363,9.4873-4.64307,1.65527,3.38232-13.69824,6.70312-10-20.43408,13.66992-6.68945,1.66895,3.41016-9.45898,4.62939,2.38281,4.86963,8.08398-3.95605,1.61426,3.29834Z"/>
    <path class="cls-2" d="m147.75942,49.5593c-.19629-.86328-.65234-1.45654-1.36621-1.78027-.71484-.32373-1.92285-.56201-3.62402-.71484-1.70117-.15234-3.07031-.37256-4.10742-.66016-2.8291-.78857-4.50488-2.33545-5.0293-4.6416-.27246-1.19824-.17773-2.34424.28418-3.4375.46191-1.09277,1.26465-2.04736,2.40918-2.86328,1.14453-.81543,2.50391-1.40234,4.0791-1.76025,1.58398-.36035,3.06152-.39404,4.43066-.10205,1.37012.29248,2.5166.88379,3.44043,1.77393.92285.89014,1.53613,2.00098,1.83887,3.33154l-4.57129,1.03906c-.23047-1.01562-.73047-1.73291-1.49805-2.15137-.76855-.41797-1.73145-.49561-2.88965-.23242-1.11719.25439-1.93164.68799-2.44434,1.30078-.51172.61328-.68066,1.30615-.50488,2.07764.16406.72168.66406,1.24316,1.50195,1.56592.83691.32227,2.00977.53613,3.51855.64209,2.77832.19092,4.89355.72998,6.34473,1.61768,1.45215.88818,2.37402,2.19531,2.7666,3.92188.43652,1.91992.05273,3.59131-1.15234,5.01318-1.2041,1.42236-3.03516,2.4126-5.49316,2.97119-1.70605.38818-3.33203.4292-4.875.12305-1.54395-.30615-2.80762-.91846-3.79102-1.83838-.9834-.91895-1.63867-2.09521-1.96387-3.52734l4.58594-1.04248c.55664,2.44775,2.29785,3.33936,5.22266,2.67432,1.08691-.24707,1.88477-.66064,2.39453-1.24121.50879-.58057.67285-1.2666.49316-2.05908Z"/>
    <path class="cls-2" d="m173.64418,47.70285l5.4502-17.01807,5.21777.08984-8.3125,22.61035-4.88965-.08447-7.49805-22.88232,5.20215.08936,4.83008,17.19531Z"/>
    <path class="cls-2" d="m214.94399,49.57932c-.59082,2.16064-1.49121,3.94971-2.69922,5.36865-1.20898,1.41895-2.64551,2.37598-4.30859,2.87109-1.66406.49561-3.41504.4917-5.25391-.01123-1.81836-.49756-3.32129-1.37842-4.50879-2.64307-1.18848-1.26416-1.95215-2.81494-2.29199-4.65186s-.22656-3.81201.34082-5.9248l.29688-1.08496c.59082-2.16016,1.50098-3.95557,2.72852-5.38525,1.22852-1.42969,2.67285-2.38965,4.33594-2.87988,1.66211-.49023,3.40723-.48535,5.23633.01465,1.82812.50049,3.33301,1.38428,4.51465,2.65234,1.18066,1.26855,1.93652,2.83008,2.26562,4.68604.3291,1.85547.2002,3.85889-.3877,6.00879l-.26855.97949Zm-4.30957-2.24805c.62988-2.30029.69531-4.16162.19922-5.58252-.49707-1.4209-1.50977-2.34033-3.03613-2.7583-1.51758-.41504-2.84961-.14502-3.99609.81055-1.14746.95508-2.03809,2.57178-2.6709,4.84961l-.29297,1.07031c-.61328,2.24072-.67676,4.09131-.19043,5.55273.48535,1.46094,1.50195,2.40332,3.0498,2.82666,1.5166.41504,2.84473.13818,3.98438-.82959,1.13965-.96826,2.02637-2.59082,2.66016-4.86914l.29297-1.07031Z"/>
    <path class="cls-2" d="m228.76723,63.80197l8.70801,4.82031-1.82422,3.29492-12.80859-7.09082,11.01758-19.90381,4.10156,2.27002-9.19434,16.60938Z"/>
    <path class="cls-2" d="m267.57583,73.22727l-5.29785-4.52734-12.3125,14.40869-3.56348-3.04492,12.3125-14.40869-5.22656-4.46631,2.4668-2.88672,14.08789,12.03906-2.4668,2.88623Z"/>
  </g>
  <g>
    <path class="cls-5" d="m160.61425,309.89741c-34.77262-2.6964-67.04458-18.2976-90.8728-43.92941-23.95605-25.76863-37.14945-59.34784-37.14945-94.55189h15.33954c0,31.31623,11.73535,61.18639,33.04393,84.10782,21.19873,22.80259,49.90344,36.68207,80.8252,39.07988l-1.18642,15.2936Z"/>
    <path class="cls-1" d="m182.37822,309.89741l-1.18642-15.2936c30.92176-2.3978,59.62647-16.27729,80.8252-39.07988,21.30858-22.92143,33.04393-52.79159,33.04393-84.10782h15.33954c0,35.20405-13.1934,68.78326-37.14945,94.55189-23.82822,25.63181-56.10018,41.233-90.8728,43.92941Z"/>
  </g>
  <path class="cls-2" d="m301.49282,157.55539c-2.96973-28.16113-14.74121-54.06885-34.04297-74.92139l.73438-.67969c19.44922,21.0127,31.31055,47.11865,34.30273,75.49658l-.99414.10449Z"/>
  <path class="cls-2" d="m41.49868,157.55539l-.99414-.10449c3.02637-28.71777,15.71973-56.07324,35.74121-77.02783l.72266.69043c-19.86914,20.7959-32.46582,47.94336-35.46973,76.44189Z"/>
  <g>
    <path class="cls-2" d="m95.63833,180.51096l6.74707,19.44043,6.71191-19.44043h7.10742v26.80371h-5.42969v-7.32715l.54102-12.64648-7.08984,19.97363h-3.7168l-7.07227-19.95508.54199,12.62793v7.32715h-5.41211v-26.80371h7.07129Z"/>
    <path class="cls-2" d="m136.86196,201.79221h-9.48926l-1.80469,5.52246h-5.75488l9.77832-26.80371h5.01562l9.83203,26.80371h-5.75488l-1.82227-5.52246Zm-8.02832-4.47363h6.56738l-3.30176-10.0332-3.26562,10.0332Z"/>
    <path class="cls-2" d="m157.39223,197.50314h-4.31152v9.81152h-5.41211v-26.80371h9.75977c3.10254,0,5.49609.70605,7.17969,2.11719,1.68457,1.41113,2.52637,3.40625,2.52637,5.9834,0,1.82812-.3877,3.35352-1.16406,4.57422-.77539,1.22168-1.95117,2.19434-3.52637,2.91797l5.68262,10.95312v.25781h-5.80957l-4.9248-9.81152Zm-4.31152-4.47363h4.36523c1.35938,0,2.41113-.35254,3.15723-1.05859s1.11914-1.67773,1.11914-2.91797c0-1.26367-.35254-2.25781-1.05566-2.98242-.7041-.72363-1.7832-1.08594-3.23828-1.08594h-4.34766v8.04492Z"/>
    <path class="cls-2" d="m180.25063,196.56369l-2.81445,3.09277v7.6582h-5.41211v-26.80371h5.41211v12.15039l2.38086-3.33203,6.69336-8.81836h6.65723l-9.32715,11.91113,9.59766,14.89258h-6.44043l-6.74707-10.75098Z"/>
    <path class="cls-2" d="m212.05629,195.69846h-10.3916v7.17969h12.19531v4.43652h-17.60742v-26.80371h17.57129v4.47363h-12.15918v6.3877h10.3916v4.32617Z"/>
    <path class="cls-2" d="m239.17251,207.31467h-5.41309l-10.53516-17.63574v17.63574h-5.41211v-26.80371h5.41211l10.55371,17.67285v-17.67285h5.39453v26.80371Z"/>
    <path class="cls-2" d="m254.47036,197.98166h-10.15723v-4.29004h10.15723v4.29004Z"/>
    <path class="cls-2" d="m94.14516,231.00314v9.44336h-5.52246v-26.80371h10.45605c2.0127,0,3.7832.36816,5.31055,1.10449,1.52832.73633,2.70312,1.7832,3.52539,3.13867.82227,1.35645,1.2334,2.89941,1.2334,4.62988,0,2.62695-.89941,4.69824-2.69629,6.21289-1.79883,1.5166-4.28711,2.27441-7.46484,2.27441h-4.8418Zm0-4.47363h4.93359c1.45996,0,2.57422-.34375,3.34082-1.03125.7666-.68652,1.15039-1.66895,1.15039-2.94531,0-1.31348-.38574-2.375-1.15918-3.18457-.77344-.81055-1.84082-1.22754-3.20312-1.25195h-5.0625v8.41309Z"/>
    <path class="cls-2" d="m125.73891,234.92404h-9.68359l-1.84082,5.52246h-5.87207l9.97754-26.80371h5.11816l10.03223,26.80371h-5.87207l-1.85938-5.52246Zm-8.19238-4.47363h6.70117l-3.36914-10.0332-3.33203,10.0332Z"/>
    <path class="cls-2" d="m146.83852,230.63498h-4.39941v9.81152h-5.52246v-26.80371h9.95898c3.16602,0,5.6084.70605,7.32617,2.11719,1.71875,1.41113,2.57812,3.40625,2.57812,5.9834,0,1.82812-.39648,3.35352-1.1875,4.57422-.79199,1.22168-1.99121,2.19434-3.59961,2.91797l5.79883,10.95312v.25781h-5.92773l-5.02539-9.81152Zm-4.39941-4.47363h4.45508c1.38672,0,2.45996-.35254,3.22168-1.05859.76074-.70605,1.14062-1.67773,1.14062-2.91797,0-1.26367-.3584-2.25781-1.07617-2.98242-.71875-.72363-1.82031-1.08594-3.30469-1.08594h-4.43652v8.04492Z"/>
    <path class="cls-2" d="m181.17543,218.11643h-8.20996v22.33008h-5.52344v-22.33008h-8.09961v-4.47363h21.83301v4.47363Z"/>
    <path class="cls-2" d="m207.06215,240.4465h-5.52246l-10.75098-17.63574v17.63574h-5.52246v-26.80371h5.52246l10.76953,17.67285v-17.67285h5.50391v26.80371Z"/>
    <path class="cls-2" d="m228.95376,228.83029h-10.60352v7.17969h12.44434v4.43652h-17.9668v-26.80371h17.92969v4.47363h-12.40723v6.3877h10.60352v4.32617Z"/>
    <path class="cls-2" d="m244.89907,230.63498h-4.39941v9.81152h-5.52246v-26.80371h9.95898c3.16602,0,5.6084.70605,7.32617,2.11719,1.71875,1.41113,2.57812,3.40625,2.57812,5.9834,0,1.82812-.39648,3.35352-1.1875,4.57422-.79199,1.22168-1.99121,2.19434-3.59961,2.91797l5.79883,10.95312v.25781h-5.92773l-5.02539-9.81152Zm-4.39941-4.47363h4.45508c1.38672,0,2.45996-.35254,3.22168-1.05859.76074-.70605,1.14062-1.67773,1.14062-2.91797,0-1.26367-.3584-2.25781-1.07617-2.98242-.71875-.72363-1.82031-1.08594-3.30469-1.08594h-4.43652v8.04492Z"/>
  </g>
  <g>
    <path class="cls-3" d="m171.17565,95.29611s-1.0448,0-1.0448,1.04479v18.4263s0,1.04479,1.0448,1.04479h3.13437s1.0448,0,1.0448-1.04479v-18.4263s0-1.04479-1.0448-1.04479h-3.13437Z"/>
    <path class="cls-3" d="m194.84591,124.38205c0-10.1286-6.50653-18.74265-15.59654-21.58244v5.67959c6.02811,2.65047,10.23821,8.80336,10.23821,15.99751,0,9.56064-7.55905,17.32275-16.74475,17.32275s-16.74475-7.76211-16.74475-17.32275c0-7.19415,4.2101-13.34704,10.23821-15.99751v-5.67959c-8.99432,2.8398-15.59654,11.45384-15.59654,21.58244,0,12.4951,9.85548,22.6237,22.10307,22.6237,12.24759,0,22.10307-10.12861,22.10307-22.62371"/>
  </g>
  <g>
    <path class="cls-3" d="m220.22737,112.11481s-.70497,0-.70497.70497v12.4331s0,.70497.70497.70497h2.11491s.70497,0,.70497-.70497v-12.4331s0-.70497-.70497-.70497h-2.11491Z"/>
    <path class="cls-3" d="m236.19881,131.74047c0-6.83425-4.39027-12.64655-10.52372-14.5627v3.83229c4.06745,1.7884,6.90821,5.94005,6.90821,10.79428,0,6.45102-5.10045,11.68848-11.29847,11.68848s-11.29847-5.23746-11.29847-11.68848c0-4.85423,2.84076-9.00588,6.90821-10.79428v-3.83229c-6.06889,1.91614-10.52372,7.72845-10.52372,14.5627,0,8.43103,6.64996,15.26528,14.91399,15.26528,8.26403,0,14.91399-6.83425,14.91399-15.26529"/>
  </g>
  <g>
    <g>
      <path class="cls-3" d="m260.94416,118.7414s-.57108,0-.57108.57108v10.07177s0,.57108.57108.57108h1.71324s.57108,0,.57108-.57108v-10.07177s0-.57108-.57108-.57108h-1.71324Z"/>
      <path class="cls-3" d="m273.88227,134.63969c0-5.53627-3.55645-10.24468-8.52503-11.79691v3.10445c3.29495,1.44874,5.59618,4.8119,5.59618,8.7442,0,5.22582-4.13176,9.46857-9.15264,9.46857s-9.15264-4.24275-9.15264-9.46857c0-3.9323,2.30123-7.29546,5.59618-8.7442v-3.10445c-4.91627,1.55222-8.52503,6.26064-8.52503,11.79691,0,6.82979,5.38698,12.36606,12.08148,12.36606,6.6945,0,12.08148-5.53627,12.08148-12.36606"/>
    </g>
    <g>
      <path class="cls-3" d="m82.82828,118.7414s-.57108,0-.57108.57108v10.07177s0,.57108.57108.57108h1.71324s.57108,0,.57108-.57108v-10.07177s0-.57108-.57108-.57108h-1.71324Z"/>
      <path class="cls-3" d="m95.76638,134.63969c0-5.53627-3.55645-10.24468-8.52503-11.79691v3.10445c3.29495,1.44874,5.59618,4.8119,5.59618,8.7442,0,5.22582-4.13176,9.46857-9.15264,9.46857s-9.15264-4.24275-9.15264-9.46857c0-3.9323,2.30123-7.29546,5.59618-8.7442v-3.10445c-4.91627,1.55222-8.52503,6.26064-8.52503,11.79691,0,6.82979,5.38698,12.36606,12.08148,12.36606,6.6945,0,12.08148-5.53627,12.08148-12.36606"/>
    </g>
  </g>
  <g>
    <path class="cls-3" d="m123.1434,112.11481s-.70497,0-.70497.70497v12.4331s0,.70497.70497.70497h2.11491s.70497,0,.70497-.70497v-12.4331s0-.70497-.70497-.70497h-2.11491Z"/>
    <path class="cls-3" d="m139.11485,131.74047c0-6.83425-4.39027-12.64655-10.52372-14.5627v3.83229c4.06745,1.7884,6.90821,5.94005,6.90821,10.79428,0,6.45102-5.10045,11.68848-11.29847,11.68848s-11.29847-5.23746-11.29847-11.68848c0-4.85423,2.84076-9.00588,6.90821-10.79428v-3.83229c-6.06889,1.91614-10.52372,7.72845-10.52372,14.5627,0,8.43103,6.64996,15.26528,14.91399,15.26528,8.26403,0,14.91399-6.83425,14.91399-15.26529"/>
  </g>
</svg>